<svg
  width="24"
  height="24"
  viewBox="0 0 24 24"
  fill="none"
  xmlns="http://www.w3.org/2000/svg"
>
  <path
    fill-rule="evenodd"
    clip-rule="evenodd"
    d="M12 2.25C12.2267 2.25 12.4434 2.34 12.5983 2.49833L14.0983 4.04833C14.2533 4.20667 14.47 4.29667 14.6967 4.29667H16.8C17.2142 4.29667 17.55 4.63245 17.55 5.04667V7.15C17.55 7.37667 17.64 7.59333 17.7983 7.74833L19.3483 9.24833C19.6317 9.53833 19.6317 10.0117 19.3483 10.3017L17.7983 11.8017C17.64 11.9567 17.55 12.1733 17.55 12.4V14.5033C17.55 14.9175 17.2142 15.2533 16.8 15.2533H14.6967C14.47 15.2533 14.2533 15.3433 14.0983 15.5017L12.5983 17.0517C12.3083 17.335 11.835 17.335 11.545 17.0517L9.995 15.5017C9.84 15.3433 9.62333 15.2533 9.39667 15.2533H7.2C6.78579 15.2533 6.45 14.9175 6.45 14.5033V12.4C6.45 12.1733 6.36 11.9567 6.20167 11.8017L4.65167 10.3017C4.36833 10.0117 4.36833 9.53833 4.65167 9.24833L6.20167 7.74833C6.36 7.59333 6.45 7.37667 6.45 7.15V5.04667C6.45 4.63245 6.78579 4.29667 7.2 4.29667H9.39667C9.62333 4.29667 9.84 4.20667 9.995 4.04833L11.545 2.49833C11.7 2.34 11.9167 2.25 12.1433 2.25H12ZM12 3.87L10.9983 4.90833C10.5733 5.34167 9.99833 5.59667 9.39667 5.59667H7.95V7.15C7.95 7.75167 7.695 8.32667 7.26167 8.75167L6.27 9.775L7.26167 10.7983C7.695 11.2233 7.95 11.7983 7.95 12.4V13.7533H9.39667C9.99833 13.7533 10.5733 14.0083 10.9983 14.4417L12 15.48L13.0017 14.4417C13.4267 14.0083 14.0017 13.7533 14.6033 13.7533H16.05V12.4C16.05 11.7983 16.305 11.2233 16.7383 10.7983L17.73 9.775L16.7383 8.75167C16.305 8.32667 16.05 7.75167 16.05 7.15V5.59667H14.6033C14.0017 5.59667 13.4267 5.34167 13.0017 4.90833L12 3.87ZM12 7.75C11.0335 7.75 10.25 8.5335 10.25 9.5C10.25 10.4665 11.0335 11.25 12 11.25C12.9665 11.25 13.75 10.4665 13.75 9.5C13.75 8.5335 12.9665 7.75 12 7.75ZM8.75 9.5C8.75 7.70507 10.2051 6.25 12 6.25C13.7949 6.25 15.25 7.70507 15.25 9.5C15.25 11.2949 13.7949 12.75 12 12.75C10.2051 12.75 8.75 11.2949 8.75 9.5Z"
    fill="currentColor"
  />
  <path
    d="M11.3572 18.7915C11.7079 19.1422 12.2921 19.1422 12.6428 18.7915L12.75 18.6843V20.25C12.75 20.6642 12.4142 21 12 21C11.5858 21 11.25 20.6642 11.25 20.25V18.6843L11.3572 18.7915Z"
    fill="currentColor"
  />
</svg>
