<svg width="231" height="48" viewBox="0 0 231 48" fill="none" xmlns="http://www.w3.org/2000/svg">
  <path d="M0.426 12.632C0.426 5.655 6.081 0 13.057 0H35.794C42.77 0 48.426 5.655 48.426 12.632V35.368C48.426 42.345 42.77 48 35.794 48H13.057C6.081 48 0.426 42.345 0.426 35.368V12.632Z" fill="#465FFF"/>
  <g filter="url(#f0)">
    <path d="M13.062 12.632C13.062 11.237 14.193 10.106 15.588 10.106C16.983 10.106 18.114 11.237 18.114 12.632V35.369C18.114 36.764 16.983 37.895 15.588 37.895C14.193 37.895 13.062 36.764 13.062 35.369V12.632Z" fill="white"/>
  </g>
  <g filter="url(#f1)">
    <path d="M22.539 22.735C22.539 21.34 23.67 20.209 25.065 20.209C26.461 20.209 27.592 21.34 27.592 22.735V35.367C27.592 36.762 26.461 37.893 25.065 37.893C23.67 37.893 22.539 36.762 22.539 35.367V22.735Z" fill="white" fill-opacity="0.9"/>
  </g>
  <g filter="url(#f2)">
    <path d="M32.008 16.419C32.008 15.024 33.139 13.893 34.534 13.893C35.929 13.893 37.06 15.024 37.06 16.419V35.366C37.06 36.762 35.929 37.893 34.534 37.893C33.139 37.893 32.008 36.762 32.008 35.366V16.419Z" fill="white" fill-opacity="0.7"/>
  </g>
  <text x="58" y="34" font-family="Inter, system-ui, -apple-system, sans-serif" font-size="26" font-weight="700" fill="white">ZenAndOps</text>
  <defs>
    <filter id="f0" x="12.062" y="9.606" width="7.053" height="29.79" filterUnits="userSpaceOnUse" color-interpolation-filters="sRGB">
      <feFlood flood-opacity="0" result="bg"/><feColorMatrix in="SourceAlpha" values="0 0 0 0 0 0 0 0 0 0 0 0 0 0 0 0 0 0 127 0" result="a"/><feOffset dy="0.5"/><feGaussianBlur stdDeviation="0.5"/><feComposite in2="a" operator="out"/><feColorMatrix values="0 0 0 0 0 0 0 0 0 0 0 0 0 0 0 0 0 0 0.12 0"/><feBlend in2="bg" result="s"/><feBlend in="SourceGraphic" in2="s"/>
    </filter>
    <filter id="f1" x="21.539" y="19.709" width="7.053" height="19.684" filterUnits="userSpaceOnUse" color-interpolation-filters="sRGB">
      <feFlood flood-opacity="0" result="bg"/><feColorMatrix in="SourceAlpha" values="0 0 0 0 0 0 0 0 0 0 0 0 0 0 0 0 0 0 127 0" result="a"/><feOffset dy="0.5"/><feGaussianBlur stdDeviation="0.5"/><feComposite in2="a" operator="out"/><feColorMatrix values="0 0 0 0 0 0 0 0 0 0 0 0 0 0 0 0 0 0 0.12 0"/><feBlend in2="bg" result="s"/><feBlend in="SourceGraphic" in2="s"/>
    </filter>
    <filter id="f2" x="31.008" y="13.393" width="7.053" height="26" filterUnits="userSpaceOnUse" color-interpolation-filters="sRGB">
      <feFlood flood-opacity="0" result="bg"/><feColorMatrix in="SourceAlpha" values="0 0 0 0 0 0 0 0 0 0 0 0 0 0 0 0 0 0 127 0" result="a"/><feOffset dy="0.5"/><feGaussianBlur stdDeviation="0.5"/><feComposite in2="a" operator="out"/><feColorMatrix values="0 0 0 0 0 0 0 0 0 0 0 0 0 0 0 0 0 0 0.12 0"/><feBlend in2="bg" result="s"/><feBlend in="SourceGraphic" in2="s"/>
    </filter>
  </defs>
</svg>
