<svg width="176" height="32" viewBox="0 0 176 32" fill="none" xmlns="http://www.w3.org/2000/svg">
  <path d="M0 8.42105C0 3.77023 3.77023 0 8.42105 0H23.5789C28.2298 0 32 3.77023 32 8.42105V23.5789C32 28.2298 28.2298 32 23.5789 32H8.42105C3.77023 32 0 28.2298 0 23.5789V8.42105Z" fill="#465FFF"/>
  <g filter="url(#f0)">
    <path d="M8.424 8.422C8.424 7.491 9.178 6.737 10.108 6.737C11.038 6.737 11.792 7.491 11.792 8.422V23.579C11.792 24.51 11.038 25.264 10.108 25.264C9.178 25.264 8.424 24.51 8.424 23.579V8.422Z" fill="white"/>
  </g>
  <g filter="url(#f1)">
    <path d="M14.742 15.157C14.742 14.227 15.496 13.473 16.426 13.473C17.357 13.473 18.111 14.227 18.111 15.157V23.578C18.111 24.508 17.357 25.262 16.426 25.262C15.496 25.262 14.742 24.508 14.742 23.578V15.157Z" fill="white" fill-opacity="0.9"/>
  </g>
  <g filter="url(#f2)">
    <path d="M21.055 10.946C21.055 10.016 21.809 9.262 22.739 9.262C23.669 9.262 24.423 10.016 24.423 10.946V23.578C24.423 24.508 23.669 25.262 22.739 25.262C21.809 25.262 21.055 24.508 21.055 23.578V10.946Z" fill="white" fill-opacity="0.7"/>
  </g>
  <text x="40" y="23" font-family="Inter, system-ui, -apple-system, sans-serif" font-size="18" font-weight="700" fill="#101828">ZenAndOps</text>
  <defs>
    <filter id="f0" x="7.424" y="6.237" width="5.368" height="20.527" filterUnits="userSpaceOnUse" color-interpolation-filters="sRGB">
      <feFlood flood-opacity="0" result="bg"/><feColorMatrix in="SourceAlpha" values="0 0 0 0 0 0 0 0 0 0 0 0 0 0 0 0 0 0 127 0" result="a"/><feOffset dy="0.5"/><feGaussianBlur stdDeviation="0.5"/><feComposite in2="a" operator="out"/><feColorMatrix values="0 0 0 0 0 0 0 0 0 0 0 0 0 0 0 0 0 0 0.12 0"/><feBlend in2="bg" result="s"/><feBlend in="SourceGraphic" in2="s"/>
    </filter>
    <filter id="f1" x="13.742" y="12.973" width="5.368" height="13.789" filterUnits="userSpaceOnUse" color-interpolation-filters="sRGB">
      <feFlood flood-opacity="0" result="bg"/><feColorMatrix in="SourceAlpha" values="0 0 0 0 0 0 0 0 0 0 0 0 0 0 0 0 0 0 127 0" result="a"/><feOffset dy="0.5"/><feGaussianBlur stdDeviation="0.5"/><feComposite in2="a" operator="out"/><feColorMatrix values="0 0 0 0 0 0 0 0 0 0 0 0 0 0 0 0 0 0 0.12 0"/><feBlend in2="bg" result="s"/><feBlend in="SourceGraphic" in2="s"/>
    </filter>
    <filter id="f2" x="20.055" y="8.762" width="5.368" height="18" filterUnits="userSpaceOnUse" color-interpolation-filters="sRGB">
      <feFlood flood-opacity="0" result="bg"/><feColorMatrix in="SourceAlpha" values="0 0 0 0 0 0 0 0 0 0 0 0 0 0 0 0 0 0 127 0" result="a"/><feOffset dy="0.5"/><feGaussianBlur stdDeviation="0.5"/><feComposite in2="a" operator="out"/><feColorMatrix values="0 0 0 0 0 0 0 0 0 0 0 0 0 0 0 0 0 0 0.12 0"/><feBlend in2="bg" result="s"/><feBlend in="SourceGraphic" in2="s"/>
    </filter>
  </defs>
</svg>
